<svg width="35" height="35" viewBox="0 0 35 35" fill="none" xmlns="http://www.w3.org/2000/svg">
<path d="M17.5 7.29167C10.2521 7.29167 2.91666 9.55208 2.91666 13.8542V21.1458C2.91666 25.4479 10.2521 27.7083 17.5 27.7083C24.7479 27.7083 32.0833 25.4479 32.0833 21.1458V13.8542C32.0833 9.55208 24.7479 7.29167 17.5 7.29167ZM5.83333 21.1458V17.9375C6.67916 18.4333 7.65625 18.8417 8.75 19.1917V23.3917C6.83958 22.6479 5.83333 21.7437 5.83333 21.1458ZM23.3333 19.9062V24.2375C22.0646 24.5 20.6062 24.6896 18.9583 24.7625V20.3875C20.4604 20.3292 21.9333 20.1542 23.3333 19.9062ZM16.0417 20.3875V24.7625C14.3937 24.6896 12.9354 24.5 11.6667 24.2375V19.9062C13.0667 20.1542 14.5396 20.3292 16.0417 20.3875ZM26.25 23.4062V19.2062C27.3437 18.8562 28.3208 18.4479 29.1667 17.9521V21.1604C29.1667 21.7729 28.1604 22.6625 26.25 23.4062ZM17.5 17.5146C9.94583 17.5146 5.83333 15.1083 5.83333 13.8688C5.83333 12.6292 9.94583 10.2229 17.5 10.2229C25.0542 10.2229 29.1667 12.6292 29.1667 13.8688C29.1667 15.1083 25.0542 17.5146 17.5 17.5146Z" fill="white"/>
</svg>
