<svg width="19" height="19" viewBox="0 0 19 19" fill="none" xmlns="http://www.w3.org/2000/svg">
<g clip-path="url(#clip0_1_38)">
<path d="M9.49674 17.4154C13.869 17.4154 17.4134 13.871 17.4134 9.4987C17.4134 5.12644 13.869 1.58203 9.49674 1.58203C5.12449 1.58203 1.58008 5.12644 1.58008 9.4987C1.58008 13.871 5.12449 17.4154 9.49674 17.4154Z" stroke="white" stroke-width="1.1875"/>
<path d="M7.51758 8.86781V10.1348C7.51758 11.3376 7.51758 11.9389 7.87839 12.182C8.23918 12.4251 8.73263 12.1562 9.7196 11.6183L10.8819 10.9847C12.0696 10.3375 12.6634 10.0138 12.6634 9.5013C12.6634 8.98878 12.0696 8.66514 10.8819 8.01788L9.7196 7.38434C8.73263 6.84645 8.23918 6.5775 7.87839 6.82058C7.51758 7.06365 7.51758 7.66503 7.51758 8.86781Z" fill="white"/>
</g>
<defs>
<clipPath id="clip0_1_38">
<rect width="19" height="19" fill="white"/>
</clipPath>
</defs>
</svg>
